<svg width="75" height="88" viewBox="0 0 75 88" fill="none" xmlns="http://www.w3.org/2000/svg">
<path d="M70.0518 10.6646C66.2042 5.96195 62.0954 7.75512 60.5219 9.23954C58.2953 12.802 57.4046 15.9195 61.8579 19.304C66.3111 22.6885 74.8614 16.5429 70.0518 10.6646Z" fill="white"/>
<path fillRule="evenodd" clipRule="evenodd" d="M7.93272 54.7731C6.70489 51.7887 5.62786 48.6547 4.76725 45.3999C3.28303 39.7868 2.24851 35.065 1.52745 31.2096C-0.0990018 22.5134 -2.3875 7.81452 6.45949 7.81452C13.5199 7.81452 15.8456 17.3601 17.2829 23.2596C17.3825 23.6685 17.4779 24.0599 17.5702 24.4293C18.7103 28.9895 21.7787 33.7323 23.649 33.7323H23.6726C25.5392 33.7324 27.8864 33.7326 27.3898 25.3602C27.2637 23.2344 27.0855 21.2118 26.8802 19.3383C26.0337 11.6153 24.8753 0.689041 32.6446 0.689267C36.6525 0.689384 38.9682 3.98441 41.2839 11.0207C43.1364 16.6497 47.6372 31.2385 49.656 37.8293C50.2201 39.6403 52.8195 42.9948 55.6234 42.3717C57.2265 42.0154 60.4329 40.2639 60.4329 33.7323C60.4329 24.569 69.9987 22.3579 72.1025 29.0377C75.6651 40.3489 78.4914 72.5728 64.3517 82.54C44.4318 96.5817 17.2056 77.3116 7.93272 54.7731ZM39.948 55.1079C42.6793 57.5721 49.179 61.2448 54.5546 58.2252C63.4445 53.2316 62.3033 60.63 59.6313 66.5082C56.9594 72.3865 49.9336 79.241 39.948 74.8804C29.4757 70.3072 24.874 60.4815 24.0428 55.1079C23.7162 53.2969 25.3498 46.2622 29.1261 45.6209C32.9025 44.9796 34.8416 46.9139 35.4947 48.0718C36.5338 50.0567 38.8792 54.2429 39.948 55.1079Z" fill="white"/>
</svg>
